# xmcd
#
# Track frame offsets:
#	150
#	17775
#	29775
#	41850
#	55725
#	69600
#	87525
#	101325
#	118050
#	135000
#	151200
#	168375
#	182625
#	196350
#	206925
#	219675
#
# Disc length: 3142 seconds
#
# Revision: 0
# Processed by: cddbd v1.5.2PL0 Copyright (c) Steve Scherf et al.
# Submitted via: EasyCDDAExtractor 15.2.5.1
#
DISCID=e90c4410
DTITLE=陳思安 (4) - 餐廳小唱(台灣版)
DYEAR=1980
DGENRE=Alternative
TTITLE0=唱首情歌給誰聽
TTITLE1=愛你愛在心坎裡
TTITLE2=愛你心口難開
TTITLE3=海誓山盟
TTITLE4=一曲情末了
TTITLE5=真倩
TTITLE6=我怎能離開你
TTITLE7=冬戀
TTITLE8=說聲對不起
TTITLE9=我沒有騙你
TTITLE10=一簾幽夢
TTITLE11=楓紅層層
TTITLE12=人約黄昏後
TTITLE13=巧合
TTITLE14=雲河
TTITLE15=奈何
EXTD=
EXTT0=
EXTT1=
EXTT2=
EXTT3=
EXTT4=
EXTT5=
EXTT6=
EXTT7=
EXTT8=
EXTT9=
EXTT10=
EXTT11=
EXTT12=
EXTT13=
EXTT14=
EXTT15=
PLAYORDER=
